:version 1.10
:name ASF
:units
  mass 1
  length 1
  angle deg
:documentation
  ASF file generated by Kaydara
:root
  axis xyz
  order  tx ty tz rx ry rz
  position 0 0 0
  orientation 0 0 0
:bonedata
  begin
    id 1
    name lfemurDummy
    direction 0.61522 -0.761478 0.204097
    length 5.68318
    axis 0 -0 0 xyz
  end
  begin
    id 2
    name lfemur
    direction 0.34202 -0.939693 -5.84747e-008
    length 16.9147
    axis 0 -0 20 xyz
    dof rx ry rz
    limits( -inf , inf )
( -inf , inf )
( -inf , inf )

  end
  begin
    id 3
    name ltibia
    direction 0.34202 -0.939693 1.20839e-009
    length 18.0532
    axis 0 -0 20 xyz
    dof rz ry rx
    limits( -inf , inf )
( -inf , inf )
( -inf , inf )

  end
  begin
    id 4
    name lfoot
    direction 0.0841971 -0.23133 0.969225
    length 5.23822
    axis -90 7.62852e-016 20 xyz
    dof ry rx rz
    limits( -inf , inf )
( -inf , inf )
( -inf , inf )

  end
  begin
    id 5
    name ltoes
    direction 0 0 0
    length 0
    axis 0 0 0 xyz
    dof rz ry rx
    limits( -inf , inf )
( -inf , inf )
( -inf , inf )

  end
  begin
    id 6
    name rfemurDummy
    direction -0.625247 -0.75382 0.202044
    length 5.74091
    axis 0 -0 0 xyz
  end
  begin
    id 7
    name rfemur
    direction -0.34202 -0.939693 -1.47013e-008
    length 16.4922
    axis 0 -0 -20 xyz
    dof rx ry rz
    limits( -inf , inf )
( -inf , inf )
( -inf , inf )

  end
  begin
    id 8
    name rtibia
    direction -0.34202 -0.939693 -7.74345e-010
    length 18.2421
    axis 0 -0 -20 xyz
    dof rz ry rx
    limits( -inf , inf )
( -inf , inf )
( -inf , inf )

  end
  begin
    id 9
    name rfoot
    direction -0.124331 -0.341598 0.931586
    length 5.45787
    axis -90 -7.62852e-016 -20 xyz
    dof ry rx rz
    limits( -inf , inf )
( -inf , inf )
( -inf , inf )

  end
  begin
    id 10
    name rtoes
    direction 0 0 0
    length 0
    axis 0 0 0 xyz
    dof rz ry rx
    limits( -inf , inf )
( -inf , inf )
( -inf , inf )

  end
  begin
    id 11
    name lowerbackDummy
    direction 0 0 0
    length 0
    axis 0 -0 0 xyz
  end
  begin
    id 12
    name lowerback
    direction -0.0218484 0.994884 -0.0986304
    length 4.45607
    axis 0 -0 0 xyz
    dof rx ry rz
    limits( -inf , inf )
( -inf , inf )
( -inf , inf )

  end
  begin
    id 13
    name upperback
    direction -0.00973057 0.999717 -0.0217111
    length 4.47449
    axis 0 -0 0 xyz
    dof rx ry rz
    limits( -inf , inf )
( -inf , inf )
( -inf , inf )

  end
  begin
    id 14
    name thorax
    direction -0.000928171 0.999699 0.0245198
    length 4.50973
    axis 0 -0 0 xyz
    dof rx ry rz
    limits( -inf , inf )
( -inf , inf )
( -inf , inf )

  end
  begin
    id 15
    name rclavicle
    direction -0.9009 0.425937 -0.0834055
    length 7.28587
    axis 0 -0 0 xyz
    dof rx ry rz
    limits( -inf , inf )
( -inf , inf )
( -inf , inf )

  end
  begin
    id 16
    name rhumerus
    direction -1 -2.23604e-007 -1.42637e-007
    length 13.5704
    axis 180 30 90 xyz
    dof rx ry rz
    limits( -inf , inf )
( -inf , inf )
( -inf , inf )

  end
  begin
    id 17
    name rradius
    direction -1 5.68281e-008 -4.4952e-007
    length 8.06782
    axis 180 30 90 xyz
    dof rz ry rx
    limits( -inf , inf )
( -inf , inf )
( -inf , inf )

  end
  begin
    id 18
    name rwrist
    direction -1 1.51393e-007 1.38143e-007
    length 4.03391
    axis -90 -90 0 xyz
    dof rz rx ry
    limits( -inf , inf )
( -inf , inf )
( -inf , inf )

  end
  begin
    id 19
    name rthumb
    direction 0 0 0
    length 0
    axis 0 0 0 xyz
    dof ry rx rz
    limits( -inf , inf )
( -inf , inf )
( -inf , inf )

  end
  begin
    id 20
    name rhand
    direction -1 -3.34077e-007 -5.59631e-007
    length 1.29744
    axis -90 -90 0 xyz
    dof ry rx rz
    limits( -inf , inf )
( -inf , inf )
( -inf , inf )

  end
  begin
    id 21
    name rfingers
    direction 0 0 0
    length 0
    axis 0 0 0 xyz
    dof rz ry rx
    limits( -inf , inf )
( -inf , inf )
( -inf , inf )

  end
  begin
    id 22
    name lclavicle
    direction 0.940017 0.332249 -0.0773232
    length 8.29589
    axis 0 -0 0 xyz
    dof rx ry rz
    limits( -inf , inf )
( -inf , inf )
( -inf , inf )

  end
  begin
    id 23
    name lhumerus
    direction 1 7.41158e-008 -1.44768e-008
    length 12.0042
    axis 180 -30 -90 xyz
    dof rx ry rz
    limits( -inf , inf )
( -inf , inf )
( -inf , inf )

  end
  begin
    id 24
    name lradius
    direction 1 -1.32972e-007 3.10821e-007
    length 8.1902
    axis 180 -30 -90 xyz
    dof rz ry rx
    limits( -inf , inf )
( -inf , inf )
( -inf , inf )

  end
  begin
    id 25
    name lwrist
    direction 1 3.08957e-007 4.01394e-007
    length 4.09509
    axis -90 90 0 xyz
    dof rz rx ry
    limits( -inf , inf )
( -inf , inf )
( -inf , inf )

  end
  begin
    id 26
    name lthumb
    direction 0 0 0
    length 0
    axis 0 0 0 xyz
    dof ry rx rz
    limits( -inf , inf )
( -inf , inf )
( -inf , inf )

  end
  begin
    id 27
    name lhand
    direction 1 -1.64125e-007 -6.99514e-007
    length 1.37229
    axis -90 90 0 xyz
    dof ry rx rz
    limits( -inf , inf )
( -inf , inf )
( -inf , inf )

  end
  begin
    id 28
    name lfingers
    direction 0 0 0
    length 0
    axis 0 0 0 xyz
    dof rz ry rx
    limits( -inf , inf )
( -inf , inf )
( -inf , inf )

  end
  begin
    id 29
    name lowerneck
    direction -0.030798 0.998024 0.0547665
    length 3.93918
    axis 0 -0 0 xyz
    dof rx ry rz
    limits( -inf , inf )
( -inf , inf )
( -inf , inf )

  end
  begin
    id 30
    name upperneck
    direction 0.0531588 0.996611 -0.0627736
    length 3.95491
    axis 0 -0 0 xyz
    dof rx ry rz
    limits( -inf , inf )
( -inf , inf )
( -inf , inf )

  end
  begin
    id 31
    name head
    direction 0 0 0
    length 0
    axis 0 0 0 xyz
    dof rx ry rz
    limits( -inf , inf )
( -inf , inf )
( -inf , inf )

  end
:hierarchy
  begin
    root lfemurDummy rfemurDummy lowerbackDummy
    lfemurDummy lfemur
    lfemur ltibia
    ltibia lfoot
    lfoot ltoes
    rfemurDummy rfemur
    rfemur rtibia
    rtibia rfoot
    rfoot rtoes
    lowerbackDummy lowerback
    lowerback upperback
    upperback thorax
    thorax rclavicle lclavicle lowerneck
    rclavicle rhumerus
    rhumerus rradius
    rradius rwrist
    rwrist rthumb rhand
    rhand rfingers
    lclavicle lhumerus
    lhumerus lradius
    lradius lwrist
    lwrist lthumb lhand
    lhand lfingers
    lowerneck upperneck
    upperneck head
  end

:SAMPLES-PER-SECOND 30
:FULLY-SPECIFIED
:DEGREES
1
root  7.920644415 38.49199851 3.4568888 -1.248001099 -53.32499695 8.692993164
lowerback  11.37520027 1.888010025 -4.516910076
upperback  3.373270035 1.925909996 0.1407510042
thorax  -2.998769999 0.9353970289 2.424930096
lowerneck  0.1993940026 9.315070152 -0.180351004
upperneck  2.066309929 12.48779964 -3.731339931
head  0.8429489732 6.210319996 -1.007459998
lclavicle  0 -9.442270133e-015 7.951389973e-016
lhumerus  -2.836630106 -5.167319775 75.38610077
lradius  2.492607771e-031 -2.501149843e-031 134.9019928
lwrist  -7.062250077e-031 -0 11.8409996
lhand  -1.496451383e-031 -27.76390076 20.11240005
lfingers  90 7.125020027 -90
lthumb  89.89689403 5.08795885 91.16245106
rclavicle  0 -9.442270133e-015 7.951389973e-016
rhumerus  -1.449849963 20.34129906 -83.53089905
rradius  -2.3781318e-031 2.610236231e-031 132.3359985
rwrist  7.062250077e-031 2.648343779e-031 -20.75390053
rhand  -7.920061211e-032 -33.2840004 9.303460121
rfingers  -90 -7.125020027 -90
rthumb  -92.93752616 -24.25625642 -97.11982154
rfemur  -15.00160027 10.77270031 4.263289928
rtibia  -0 0 53.32849884
rfoot  -0 -30.09020042 -16.93630028
rtoes  5.373923086 19.29304026 -105.8922705
lfemur  -14.77900028 3.586499929 -5.281799793
ltibia  -0 0 50.98109818
lfoot  8.913943905e-032 -7.971380234 -4.106239796
ltoes  -4.250644065 -19.5611806 -102.515957
2
root  7.897155491 38.49466579 3.569533506 -0.9900054932 -53.51699829 8.60899353
lowerback  11.28349972 1.679520011 -4.011350155
upperback  3.202640057 1.719810009 0.3206950128
thorax  -3.102950096 0.8387190104 2.356980085
lowerneck  0.4786739945 9.343009949 0.0009575400036
upperneck  1.766170025 12.52490044 -4.42016983
head  0.7652570009 6.233779907 -1.264940023
lclavicle  0 -9.442270133e-015 7.951389973e-016
lhumerus  -2.842969894 -4.978350163 74.92310333
lradius  2.525607166e-031 -2.46782343e-031 135.6629944
lwrist  -7.062250077e-031 1.765562519e-031 11.23600006
lhand  -1.496451383e-031 -27.76390076 20.11240005
lfingers  90 7.125020027 -90
lthumb  89.89689403 5.08795885 91.16245106
rclavicle  0 -9.442270133e-015 7.951389973e-016
rhumerus  -1.714110017 20.71870041 -83.21330261
rradius  -2.406553161e-031 2.584056098e-031 132.9629974
rwrist  7.062250077e-031 -2.648343779e-031 -20.59429932
rhand  -7.920061211e-032 -33.2840004 9.303460121
rfingers  -90 -7.125020027 -90
rthumb  -92.93752616 -24.25625642 -97.11982154
rfemur  -14.66790009 11.53110027 3.934730053
rtibia  -0 0 52.52489853
rfoot  -0 -30.0230999 -15.66170025
rtoes  5.373923086 19.29304026 -105.8922705
lfemur  -15.24629974 4.696219921 -4.850910187
ltibia  -0 0 51.58069992
lfoot  8.878321856e-032 -6.1145401 -5.686800003
ltoes  -4.250644065 -19.5611806 -102.515957
3
root  7.899222036 38.52955676 3.680266733 -0.6459960938 -53.50700378 8.412002563
lowerback  11.33329964 1.459769964 -3.411200047
upperback  3.083250046 1.503970027 0.531291008
thorax  -3.230979919 0.7346730232 2.266639948
lowerneck  0.4807479978 9.340169907 0.2162829936
upperneck  1.604300022 12.52960014 -5.106910229
head  0.7780119777 6.236499786 -1.511719942
lclavicle  0 -9.442270133e-015 7.951389973e-016
lhumerus  -2.815639973 -4.818230152 74.63950348
lradius  2.556376407e-031 -2.435935899e-031 136.3820038
lwrist  -7.062250077e-031 -0 10.51159954
lhand  -1.496451383e-031 -27.76390076 20.11240005
lfingers  90 7.125020027 -90
lthumb  89.89689403 5.08795885 91.16245106
rclavicle  0 -9.442270133e-015 7.951389973e-016
rhumerus  -2.033010006 21.03610039 -82.82420349
rradius  -2.436114263e-031 2.556206434e-031 133.621994
rwrist  7.062250077e-031 -8.827812596e-032 -20.31830025
rhand  -7.920061211e-032 -33.2840004 9.303460121
rfingers  -90 -7.125020027 -90
rthumb  -92.93752616 -24.25625642 -97.11982154
rfemur  -14.42380047 12.16520023 3.577810049
rtibia  -0 0 51.93399811
rfoot  -0 -29.69989967 -14.12129974
rtoes  5.373923086 19.29304026 -105.8922705
lfemur  -16.22139931 5.887440205 -4.375589848
ltibia  -0 0 52.6780014
lfoot  8.851661503e-032 -4.206850052 -6.847169876
ltoes  -4.250644065 -19.5611806 -102.515957
4
root  7.924022074 38.59044473 3.795444308 -0.1999969482 -53.36399841 8.082000732
lowerback  11.47579956 1.218170047 -2.690969944
upperback  3.080990076 1.271090031 0.7744079828
thorax  -3.287400007 0.6167399883 2.14489007
lowerneck  0.1744260043 9.34912014 0.2924399972
upperneck  1.446140051 12.55290031 -5.691720009
head  0.8276180029 6.24406004 -1.691100001
lclavicle  0 -9.442270133e-015 7.951389973e-016
lhumerus  -2.612669945 -4.559659958 74.48799896
lradius  2.584056098e-031 -2.406553161e-031 137.0370026
lwrist  -7.062250077e-031 -1.765562519e-031 10.04360008
lhand  -1.496451383e-031 -27.76390076 20.11240005
lfingers  90 7.125020027 -90
lthumb  89.89689403 5.08795885 91.16245106
rclavicle  0 -9.442270133e-015 7.951389973e-016
rhumerus  -2.348320007 21.3980999 -82.29679871
rradius  -2.453767628e-031 2.53926534e-031 134.0189972
rwrist  7.062250077e-031 -8.827812596e-032 -19.24449921
rhand  -7.920061211e-032 -33.2840004 9.303460121
rfingers  -90 -7.125020027 -90
rthumb  -92.93752616 -24.25625642 -97.11982154
rfemur  -14.33460045 12.31299973 3.262759924
rtibia  -0 0 51.51350021
rfoot  -0 -28.46030045 -13.29389954
rtoes  5.373923086 19.29304026 -105.8922705
lfemur  -17.60070038 7.068669796 -3.876159906
ltibia  -0 0 54.10409927
lfoot  -0 -1.552160025 -7.775390148
ltoes  -4.250644065 -19.5611806 -102.515957
